<?xml version="1.0" encoding="UTF-8" standalone="no"?>
<svg
   width="256"
   height="256"
   viewBox="0 0 67.733334 67.733333"
   version="1.1"
   id="svg1"
   sodipodi:docname="favicon.svg"
   inkscape:version="1.4.1 (1:1.4.1+202503302257+93de688d07)"
   xmlns:inkscape="http://www.inkscape.org/namespaces/inkscape"
   xmlns:sodipodi="http://sodipodi.sourceforge.net/DTD/sodipodi-0.dtd"
   xmlns="http://www.w3.org/2000/svg"
   xmlns:svg="http://www.w3.org/2000/svg">
  <sodipodi:namedview
     id="namedview1"
     pagecolor="#ffffff"
     bordercolor="#666666"
     borderopacity="1.0"
     inkscape:showpageshadow="2"
     inkscape:pageopacity="0.0"
     inkscape:pagecheckerboard="0"
     inkscape:deskcolor="#d1d1d1"
     inkscape:zoom="1.7773438"
     inkscape:cx="189.89011"
     inkscape:cy="259.37582"
     inkscape:window-width="2560"
     inkscape:window-height="1403"
     inkscape:window-x="0"
     inkscape:window-y="0"
     inkscape:window-maximized="1"
     inkscape:current-layer="svg1" />
  <defs
     id="defs1" />
  <rect
     style="fill:#cccccc;stroke:none;stroke-width:0.964999;stroke-linejoin:bevel;stroke-miterlimit:9.9;paint-order:stroke fill markers"
     id="rect1"
     width="67.73333"
     height="67.73333"
     x="1.8635254e-06"
     y="1.8635254e-06" />
  <path
     style="font-weight:bold;font-size:41.6278px;line-height:1.25;font-family:'IBM Plex Mono';-inkscape-font-specification:'IBM Plex Mono Bold';fill:#aa0000;fill-opacity:1;stroke-width:0.264583"
     d="M 17.839948,67.733333 V 61.988697 L 5.4764911,55.453133 V 55.120111 L 17.839948,48.584547 V 42.83991 l -17.89995436,9.574394 v 5.744636 z m 32.053438,0 L 67.79334,58.15894 V 52.414304 L 49.893386,42.83991 v 5.744637 l 12.363456,6.535564 v 0.333022 l -12.363456,6.535564 z"
     id="text4"
     aria-label="&lt; &gt;" />
  <path
     style="font-style:italic;font-weight:bold;font-size:31.75px;line-height:1.25;font-family:'IBM Plex Mono';-inkscape-font-specification:'IBM Plex Mono Bold Italic';fill:#ffcc00;stroke-width:0.264583"
     d="m 22.579517,30.57525 c 3.048,0 4.73075,-1.5875 5.3975,-5.55625 l 2.921,-17.55775 h -10.63625 l -0.60325,3.6195 h 6.00075 l -2.63525,15.8115 -0.41275,0.15875 -3.58775,-4.92125 -3.175,2.19075 1.016,1.5875 c 1.93675,3.01625 3.20675,4.66725 5.715,4.66725 z m 6.5405,-25.273 c 1.905,0 2.76225,-0.762 2.9845,-2.0955 0.127,-0.762 0.15875,-1.04775 0.15875,-1.27 0,-1.11125 -0.6985,-1.93675 -2.6035,-1.93675 -1.905,0 -2.76225,0.762 -2.9845,2.0955 -0.127,0.762 -0.15875,1.04775 -0.15875,1.27 0,1.11125 0.6985,1.93675 2.6035,1.93675 z m 13.843012,18.923 c 4.8895,0 8.03275,-2.159 8.03275,-5.7785 0,-2.667 -1.68275,-3.81 -4.41325,-4.41325 l -2.44475,-0.53975 c -1.016,-0.22225 -1.61925,-0.47625 -1.61925,-1.36525 0,-1.17475 1.0795,-1.778 2.7305,-1.778 1.8415,0 3.3655,0.73025 4.09575,1.651 l 2.54,-2.6035 c -1.11125,-1.42875 -3.58775,-2.31775 -6.50875,-2.31775 -4.2545,0 -7.4295,1.9685 -7.4295,5.6515 0,2.88925 1.93675,3.937 4.41325,4.47675 l 2.3495,0.508 c 0.98425,0.22225 1.68275,0.53975 1.68275,1.42875 0,1.17475 -1.2065,1.80975 -3.1115,1.80975 -1.93675,0 -3.683,-0.66675 -4.60375,-1.9685 l -2.6035,2.57175 c 1.11125,1.7145 3.6195,2.667 6.88975,2.667 z"
     id="text5"
     aria-label="js" />
</svg>
